<svg width="70" height="70" viewBox="0 0 70 70" fill="none" xmlns="http://www.w3.org/2000/svg">
<path d="M69.9433 9.89637C69.8056 9.47513 69.4416 9.16724 69.0018 9.10298L64.8228 8.49512L62.9526 4.70809C62.5606 3.91005 61.2527 3.91005 60.8608 4.70809L58.9906 8.49512L54.8114 9.10312C54.3716 9.16724 54.0076 9.47418 53.8687 9.89651C53.7323 10.3188 53.8453 10.7831 54.1639 11.0924L57.1891 14.0407L56.4752 18.2034C56.4005 18.6409 56.5802 19.0831 56.9384 19.3445C57.3012 19.6082 57.7748 19.6407 58.168 19.4331L61.9061 17.4672L65.6442 19.4331C65.8146 19.5229 66.0024 19.5672 66.1879 19.5672C66.4294 19.5672 66.671 19.4925 66.874 19.3443C67.2333 19.0831 67.413 18.6408 67.3372 18.2033L66.6233 14.0405L69.6485 11.0923C69.9654 10.7819 70.0798 10.3187 69.9433 9.89637ZM64.5556 12.7991C64.2815 13.0662 64.1555 13.4536 64.2208 13.8316L64.6385 16.2688L62.4499 15.1184C62.2795 15.0286 62.0929 14.9843 61.9061 14.9843C61.7195 14.9843 61.534 15.0286 61.3624 15.1184L59.1736 16.2688L59.5913 13.8316C59.6567 13.4536 59.5306 13.0675 59.2565 12.7991L57.4843 11.0724L59.932 10.7166C60.3124 10.6617 60.6402 10.4226 60.8106 10.0783L61.9049 7.86169L62.9992 10.0783C63.1696 10.4225 63.4974 10.6617 63.8778 10.7166L66.3255 11.0724L64.5556 12.7991Z" fill="#2196F3"/>
<path d="M57.167 44.8923H54.8336V47.2257H57.167V44.8923Z" fill="#2196F3"/>
<path d="M57.167 49.5591H54.8336V51.8925H57.167V49.5591Z" fill="#2196F3"/>
<path d="M59.5004 47.2257H57.167V49.5591H59.5004V47.2257Z" fill="#2196F3"/>
<path d="M54.8337 47.2257H52.5003V49.5591H54.8337V47.2257Z" fill="#2196F3"/>
<path d="M49.0002 57.7259H46.6668V60.0593H49.0002V57.7259Z" fill="#2196F3"/>
<path d="M49.0002 62.3926H46.6668V64.726H49.0002V62.3926Z" fill="#2196F3"/>
<path d="M51.3337 60.0593H49.0002V62.3927H51.3337V60.0593Z" fill="#2196F3"/>
<path d="M46.6668 60.0593H44.3334V62.3927H46.6668V60.0593Z" fill="#2196F3"/>
<path d="M35 53.0592H32.6666V55.3926H35V53.0592Z" fill="#2196F3"/>
<path d="M35 57.7259H32.6666V60.0593H35V57.7259Z" fill="#2196F3"/>
<path d="M37.3334 55.3925H35V57.7259H37.3334V55.3925Z" fill="#2196F3"/>
<path d="M32.6666 55.3925H30.3332V57.7259H32.6666V55.3925Z" fill="#2196F3"/>
<path d="M12.833 13.3918H10.4996V15.7252H12.833V13.3918Z" fill="#2196F3"/>
<path d="M12.833 18.0587H10.4996V20.3921H12.833V18.0587Z" fill="#2196F3"/>
<path d="M15.1663 15.7252H12.8329V18.0586H15.1663V15.7252Z" fill="#2196F3"/>
<path d="M10.4996 15.7252H8.1662V18.0586H10.4996V15.7252Z" fill="#2196F3"/>
<path d="M52.2556 30.9738C51.6478 30.1256 50.7558 29.5797 49.7432 29.4326C48.726 29.2833 47.7224 29.5597 46.9104 30.2026L44.2638 32.3014L44.2626 32.3026L40.2503 35.4025L37.3792 34.2194C42.4988 31.8429 46.077 26.545 46.077 20.3942C46.077 12.0314 39.4744 5.22736 31.3586 5.22736C23.2429 5.22736 16.6404 12.0314 16.6404 20.3942C16.6404 23.4253 17.5166 26.2439 19.0085 28.6158L13.1649 28.5633C13.1615 28.5633 13.1582 28.5633 13.1548 28.5633C13.1366 28.5633 13.1221 28.5726 13.1052 28.5738C12.9935 28.5785 12.8841 28.6018 12.7771 28.6415C12.75 28.652 12.7218 28.6579 12.6959 28.6706C12.6825 28.6765 12.6688 28.6776 12.6554 28.6846L5.81944 32.1764C5.81825 32.1764 5.81719 32.1764 5.81719 32.1775L1.81388 34.1692C1.76987 34.1891 1.72481 34.2159 1.6808 34.2462C0.0851061 35.3452 -0.458422 37.5036 0.41561 39.2676C0.881302 40.2056 1.67406 40.8963 2.6484 41.2124C3.02396 41.3337 3.40733 41.3933 3.78844 41.3933C4.40082 41.3933 5.00752 41.2381 5.56333 40.9313L8.49756 39.3167L13.2845 36.7593L16.1533 36.7418L4.64767 48.5884C4.64662 48.5896 4.64543 48.5896 4.64424 48.5907L1.81374 51.5074C1.14507 52.1958 0.777433 53.1092 0.777433 54.0835C0.777433 55.0565 1.14507 55.9723 1.81374 56.6619C2.50052 57.3689 3.40376 57.7235 4.30699 57.7235C5.21142 57.7235 6.11347 57.3689 6.80249 56.6619L9.58105 53.7988L13.2618 50.9556L15.1665 52.9179L11.4417 56.7551C11.4406 56.7564 11.4395 56.7564 11.4383 56.7574L8.60778 59.6741C7.9391 60.3625 7.57147 61.2759 7.57147 62.2502C7.57147 63.2233 7.9391 64.139 8.60778 64.8286C9.29455 65.5356 10.199 65.8903 11.1022 65.8903C12.0055 65.8903 12.9099 65.5356 13.5977 64.8286L16.4293 61.912L20.9591 57.2453C20.9602 57.244 20.9602 57.2429 20.9613 57.2417L23.096 55.0542L23.0881 55.046C23.1016 55.032 23.1207 55.0272 23.1344 55.0122L34.057 42.6349L41.3959 43.7152C41.4489 43.7234 41.5018 43.7269 41.5548 43.7269C41.6913 43.7269 41.8232 43.6931 41.9506 43.6429C41.9879 43.629 42.0205 43.6102 42.0555 43.5916C42.0961 43.5706 42.1389 43.559 42.1774 43.5322L48.9716 38.8655C48.9964 38.848 49.0099 38.8199 49.0335 38.8013C49.0606 38.7792 49.0945 38.7699 49.1192 38.7453L51.8075 36.1401C53.2063 34.7841 53.3991 32.5628 52.2556 30.9738ZM4.50442 38.8722C4.13798 39.0752 3.72184 39.1159 3.32381 38.9854C2.92908 38.8582 2.60888 38.5793 2.42163 38.2025C2.08108 37.5165 2.27838 36.6811 2.8749 36.2296L5.6524 34.8471L6.32107 36.8689L6.60189 37.7182L4.50442 38.8722ZM11.8985 34.874L8.62496 36.6241L8.08486 34.9907L7.69701 33.8169L11.9822 31.6282L11.8985 34.874ZM43.824 20.3919C43.824 22.4009 43.3605 24.2957 42.5576 25.9907L33.7167 21.8362C33.6242 20.5821 32.995 19.4842 32.05 18.8005L35.1455 8.16849C40.1727 9.82295 43.824 14.6752 43.824 20.3919ZM18.8981 20.3919C18.8981 13.3159 24.489 7.55831 31.361 7.55831C31.8956 7.55831 32.4187 7.60493 32.9364 7.67261L29.9086 18.0713C29.868 18.0701 29.8297 18.0585 29.7879 18.0585C27.6047 18.0585 25.8286 19.8901 25.8286 22.1419C25.8286 24.3936 27.6047 26.2254 29.7879 26.2254C31.2561 26.2254 32.5247 25.3866 33.2092 24.1591L41.3758 27.9975C39.1035 31.1615 35.4667 33.2255 31.3609 33.2255C24.489 33.2255 18.8981 27.4679 18.8981 20.3919ZM31.4918 22.1419C31.4918 23.1068 30.7272 23.8919 29.7879 23.8919C28.8486 23.8919 28.084 23.1068 28.084 22.1419C28.084 21.1771 28.8486 20.3919 29.7879 20.3919C30.7272 20.3919 31.4918 21.1771 31.4918 22.1419ZM5.21155 55.0074C4.71203 55.5196 3.90341 55.5185 3.40508 55.0087C3.16483 54.7601 3.03295 54.4324 3.03295 54.0835C3.03295 53.7358 3.16483 53.4079 3.40508 53.1618L5.43925 51.0652L7.23898 52.9191L5.21155 55.0074ZM12.0068 63.1743C11.5073 63.6865 10.6976 63.6877 10.1991 63.1755C9.95886 62.927 9.82698 62.5993 9.82698 62.2503C9.82698 61.9027 9.95886 61.5748 10.1991 61.3287L12.2346 59.231L13.086 60.1072L14.0355 61.0849L12.0068 63.1743ZM19.3683 55.5862C19.3671 55.5873 19.366 55.5873 19.3648 55.5885L15.6333 59.4385L14.7819 58.5623L13.8324 57.5846L17.5605 53.7451C17.5605 53.7451 17.5605 53.7451 17.5605 53.744C17.5616 53.7428 17.5627 53.7428 17.5639 53.7417C17.6485 53.6542 17.7015 53.5492 17.7534 53.4454C17.7681 53.415 17.7962 53.3893 17.8086 53.3579C17.8437 53.2681 17.8492 53.1713 17.8628 53.0767C17.8696 53.0229 17.8922 52.9729 17.8922 52.9179C17.8922 52.8397 17.8651 52.764 17.8493 52.6869C17.8359 52.6169 17.8359 52.5456 17.8098 52.4781C17.767 52.3684 17.6937 52.2716 17.617 52.177C17.5956 52.1513 17.5877 52.1186 17.564 52.0942C17.564 52.0942 17.564 52.0942 17.5628 52.0942C17.5616 52.0931 17.5616 52.0906 17.5606 52.0895L14.1629 48.5895C14.1268 48.5521 14.0806 48.537 14.04 48.5055C13.9803 48.4577 13.9228 48.4134 13.8562 48.3795C13.792 48.3468 13.7266 48.327 13.6589 48.3082C13.5867 48.2872 13.5168 48.2709 13.4412 48.265C13.3724 48.2604 13.3082 48.2674 13.2395 48.2756C13.1639 48.2849 13.0929 48.2954 13.0196 48.3199C12.9485 48.3432 12.8854 48.3793 12.82 48.4179C12.7783 48.4424 12.7309 48.4506 12.6914 48.4809L8.94198 51.3767L7.03732 49.4143L12.1096 44.1946L21.3295 53.576L19.3683 55.5862ZM33.7855 40.2372C33.7529 40.2325 33.7224 40.2454 33.6897 40.2431C33.6074 40.2384 33.5285 40.2443 33.4462 40.2582C33.382 40.2699 33.321 40.2827 33.2601 40.3049C33.188 40.3306 33.1226 40.3656 33.056 40.4075C32.9928 40.4472 32.9353 40.4892 32.8801 40.5417C32.853 40.5661 32.8203 40.5779 32.7955 40.6058L22.8617 51.862L13.7107 42.5506L19.7009 36.3859C20.1419 35.9309 20.1441 35.1923 19.7043 34.735C19.4822 34.5052 19.1901 34.392 18.8981 34.3932V34.3921L14.2069 34.4212L14.2656 30.9049L20.8286 30.9633C23.5035 33.7937 27.2337 35.5589 31.361 35.5589C32.2857 35.5589 33.1878 35.4598 34.0662 35.2905C34.1508 35.3605 34.2342 35.4317 34.3403 35.476L39.4352 37.5761L39.7576 39.235L40.1342 41.1717L33.7855 40.2372ZM42.3299 40.6268L41.668 37.2189L44.7261 34.8564L45.5268 35.9554L46.7278 37.605L42.3299 40.6268ZM50.2664 34.4341L48.4948 36.1514L46.5259 33.4471L48.2839 32.0529C48.612 31.7917 49.0259 31.6854 49.4318 31.7403C49.84 31.7997 50.2009 32.0203 50.4467 32.3621C50.9046 33.0003 50.8268 33.8905 50.2664 34.4341Z" fill="#212121"/>
<path d="M29.7545 40.5651L25.0668 35.8984C24.613 35.4446 23.8755 35.4446 23.4205 35.8984L18.734 40.5651C18.5147 40.7856 18.391 41.0819 18.391 41.3922C18.391 41.7026 18.5135 42.0001 18.734 42.2194L23.4205 46.8861C23.648 47.1124 23.9468 47.2256 24.2443 47.2256C24.5418 47.2256 24.8404 47.1124 25.0668 46.8861L29.7545 42.2194C29.9738 42.0001 30.0987 41.7026 30.0987 41.3922C30.0987 41.0819 29.9749 40.7844 29.7545 40.5651ZM24.2443 44.4128L21.2109 41.3922L24.2443 38.3717L27.2788 41.3922L24.2443 44.4128Z" fill="#212121"/>
<path d="M37.5468 11.0923L36.9833 13.358C37.1385 13.3966 40.7844 14.3462 40.7844 18.0586H43.1178C43.1177 13.6461 39.4742 11.5718 37.5468 11.0923Z" fill="#212121"/>
<path d="M43.1178 20.3919H40.7844V22.7253H43.1178V20.3919Z" fill="#212121"/>
</svg>
