<svg aria-hidden="true" style="position:absolute;width:0;height:0" xmlns="http://www.w3.org/2000/svg" overflow="hidden">
  <defs>
    <symbol id="icon-astro" viewBox="0 0 72 32">
      <path fill="var(--color1, #f5f4fa)"
        d="M1.067 0h69.867c.589 0 1.067.478 1.067 1.067v29.867c0 .589-.478 1.067-1.067 1.067H1.067A1.067 1.067 0 010 30.934V1.067C0 .478.478 0 1.067 0z" />
      <path fill="var(--color2, #2196f3)"
        d="M45.318 9.306a.315.315 0 00-.251-.212l-1.114-.162-.499-1.01c-.105-.213-.453-.213-.558 0l-.499 1.01-1.114.162a.311.311 0 00-.172.531l.807.786-.19 1.11a.311.311 0 00.451.328l.997-.524.997.524a.311.311 0 00.451-.327l-.19-1.11.807-.786a.312.312 0 00.079-.319zm-1.436.774a.31.31 0 00-.089.275l.111.65-.583-.307a.311.311 0 00-.29 0l-.583.307.111-.65a.309.309 0 00-.089-.275l-.473-.46.653-.095a.31.31 0 00.234-.17l.292-.591.292.591a.31.31 0 00.234.17l.653.095-.472.46zM41.911 18.638h-.622v.622h.622v-.622zM41.911 19.882h-.622v.622h.622v-.622zM42.533 19.26h-.622v.622h.622v-.622zM41.289 19.26h-.622v.622h.622v-.622zM39.733 22.06h-.622v.622h.622v-.622zM39.733 23.305h-.622v.622h.622v-.622zM40.356 22.682h-.622v.622h.622v-.622zM39.111 22.682h-.622v.622h.622v-.622zM36 20.816h-.622v.622H36v-.622zM36 22.06h-.622v.622H36v-.622zM36.622 21.438H36v.622h.622v-.622zM35.378 21.438h-.622v.622h.622v-.622zM30.089 10.238h-.622v.622h.622v-.622zM30.089 11.482h-.622v.622h.622v-.622zM30.711 10.86h-.622v.622h.622v-.622zM29.467 10.86h-.622v.622h.622v-.622z" />
      <path fill="var(--color3, #212121)"
        d="M41.084 14.926a1.036 1.036 0 00-.693-.411 1.038 1.038 0 00-.782.205l-.73.56-1.107.827-.792-.316a4.046 4.046 0 002.4-3.687c0-2.23-1.822-4.044-4.061-4.044s-4.061 1.814-4.061 4.044c0 .808.242 1.56.653 2.192l-1.612-.014h-.003c-.005 0-.009.002-.014.003a.289.289 0 00-.091.018c-.007.003-.015.004-.022.008l-.011.004-1.886.931h-.001l-1.104.531a1.039 1.039 0 00.544 1.927c.169 0 .337-.041.49-.123l.81-.431 1.321-.682.791-.005-3.174 3.159-.001.001-.781.778a.967.967 0 000 1.375.98.98 0 001.377 0l.767-.764 1.015-.758.525.523-1.027 1.023-.001.001-.781.778a.967.967 0 000 1.375.979.979 0 001.377 0l2.031-2.022.001-.001.589-.583-.002-.002c.004-.004.009-.005.013-.009l3.013-3.301 2.025.288a.312.312 0 00.153-.019l.029-.014c.011-.006.023-.009.034-.016l1.874-1.244c.007-.005.011-.012.017-.017.007-.006.017-.008.024-.015l.742-.695c.386-.362.439-.954.124-1.378zm-13.175 2.107c-.101.054-.216.065-.326.03a.417.417 0 01-.124-.735l.766-.369.185.539.077.226-.579.308zm2.04-1.067l-.903.467-.149-.436-.107-.313 1.182-.584-.023.866zm8.808-3.862c0 .536-.128 1.041-.349 1.493l-2.439-1.108a1.086 1.086 0 00-.46-.81l.854-2.835a3.429 3.429 0 012.394 3.26zm-6.876 0a3.434 3.434 0 013.873-3.392l-.835 2.773-.033-.003c-.602 0-1.093.488-1.093 1.089s.49 1.089 1.093 1.089c.405 0 .755-.224.944-.551l2.253 1.024a3.436 3.436 0 01-2.763 1.394 3.434 3.434 0 01-3.438-3.422zm3.474.467a.47.47 0 01-.94 0c0-.258.211-.467.47-.467s.47.209.47.467zm-7.25 8.764a.354.354 0 01-.498 0 .348.348 0 010-.493l.561-.559.497.494-.559.557zm1.874 2.178a.354.354 0 01-.602-.247c0-.093.036-.18.103-.246l.562-.559.497.494-.56.557zm2.031-2.023l-.001.001-1.03 1.027-.497-.494L31.511 21l.001-.001a.292.292 0 00.052-.079c.004-.008.012-.015.015-.023.01-.024.011-.05.015-.075.002-.014.008-.028.008-.042 0-.021-.007-.041-.012-.062-.004-.019-.004-.038-.011-.056a.318.318 0 00-.053-.08c-.006-.007-.008-.016-.015-.022h-.001l-.001-.001-.937-.933c-.01-.01-.023-.014-.034-.022-.017-.013-.033-.025-.051-.034s-.036-.014-.055-.019a.304.304 0 00-.06-.012c-.019-.001-.037.001-.056.003-.021.002-.04.005-.061.012s-.037.016-.055.026c-.012.007-.025.009-.035.017l-1.035.772-.525-.523 1.399-1.392 2.543 2.502-.541.536zm3.978-4.093c-.009-.001-.017.002-.026.002a.302.302 0 00-.174.043.343.343 0 00-.049.036c-.007.006-.017.01-.023.017l-2.741 3.002-2.525-2.483 1.653-1.644a.311.311 0 00-.221-.531l-1.294.008.016-.938 1.811.016a4.052 4.052 0 003.652 1.153.27.27 0 00.075.049l1.406.56.089.442.104.516-1.752-.249zm2.357.103l-.182-.909.844-.63.552.733-1.213.806zm2.19-1.651l-.489.458-.543-.721.485-.372a.425.425 0 01.597.083.417.417 0 01-.05.553z" />
      <path fill="var(--color3, #212121)"
        d="M34.601 17.484l-1.25-1.244a.31.31 0 00-.439 0l-1.25 1.244a.315.315 0 000 .442l1.25 1.244a.307.307 0 00.438 0l1.25-1.244a.312.312 0 000-.442zm-1.469 1.026l-.809-.805.809-.805.809.805-.809.805zM36.679 9.625l-.15.604c.041.01 1.014.264 1.014 1.254h.622c0-1.177-.972-1.73-1.486-1.858zM38.165 12.104h-.622v.622h.622v-.622z" />
    </symbol>
    <symbol id="icon-clock" viewBox="0 0 72 32">
      <path fill="var(--color1, #f5f4fa)"
        d="M1.067 0h69.867c.589 0 1.067.478 1.067 1.067v29.867c0 .589-.478 1.067-1.067 1.067H1.067A1.067 1.067 0 010 30.934V1.067C0 .478.478 0 1.067 0z" />
      <path fill="var(--color3, #212121)"
        d="M44.923 15.592c-.001-4.931-3.999-8.927-8.93-8.926a8.928 8.928 0 00-2.714 17.433.394.394 0 00.309-.038.37.37 0 00.165-.208l2.255-7.146a1.116 1.116 0 10-.49-2.12l-2.978-2.979a.372.372 0 00-.526.526l2.977 2.98a1.095 1.095 0 00.313 1.347l-2.148 6.809A8.192 8.192 0 1138.82 7.897a8.192 8.192 0 01.502 15.169l-.232-1.093a.372.372 0 00-.612-.201L36.24 23.77a.372.372 0 00.134.632l2.858.912a.373.373 0 00.478-.431l-.228-1.073a8.9 8.9 0 005.442-8.219zm-8.928-.372a.373.373 0 11-.001.745.373.373 0 01.001-.745zm1.226 8.671l1.274-1.136.352 1.657-1.626-.52z" />
      <path fill="var(--color2, #2196f3)"
        d="M35.623 8.525v.744a.371.371 0 10.744 0v-.744a.373.373 0 00-.744 0zM28.928 15.22a.372.372 0 100 .744h.744a.372.372 0 100-.744h-.744zM43.063 15.964a.372.372 0 100-.744h-.744a.372.372 0 100 .744h.744z" />
    </symbol>
    <symbol id="icon-email-black" viewBox="0 0 32 32">
      <path
        d="M26.667 5.333H5.334A2.663 2.663 0 002.681 8l-.013 16c0 1.467 1.2 2.667 2.667 2.667h21.333c1.467 0 2.667-1.2 2.667-2.667V8c0-1.467-1.2-2.667-2.667-2.667zM26.133 11l-9.427 5.893a1.346 1.346 0 01-1.413 0L5.866 11a1.132 1.132 0 111.2-1.92l8.933 5.587 8.933-5.587a1.132 1.132 0 111.2 1.92z" />
    </symbol>
    <symbol id="icon-envelope" viewBox="0 0 43 32">
      <path fill=""
        d="M38.667 0H4C1.794 0 0 1.794 0 4v24c0 2.206 1.794 4 4 4h34.667c2.206 0 4-1.794 4-4V4c0-2.206-1.794-4-4-4zm0 2.667c.181 0 .353.038.511.103L21.334 18.236 3.49 2.77a1.32 1.32 0 01.511-.103h34.667zm0 26.666H4A1.334 1.334 0 012.667 28V5.587L20.46 21.008a1.335 1.335 0 001.748 0L40.001 5.587V28c0 .736-.598 1.333-1.333 1.333z" />
    </symbol>
    <symbol id="icon-facebook" viewBox="0 0 32 32">
      <path fill="var(--color5, #afb1b8)"
        d="M21.329 5.313h2.921V.225C23.746.156 22.013 0 19.994 0c-4.212 0-7.097 2.649-7.097 7.519V12H8.249v5.688h4.648V32h5.699V17.689h4.46l.708-5.688h-5.169V8.082c.001-1.644.444-2.769 2.735-2.769z" />
    </symbol>
    <symbol id="icon-footer-send" viewBox="0 0 153 32">
      <path fill="var(--color6, #fff)"
        d="M11.113 21.333H8.605V11.225H3.747v10.108h-2.5V9.2h9.867v12.133zm2.691-4.591c0-.894.172-1.692.517-2.392s.839-1.242 1.483-1.625c.65-.383 1.403-.575 2.258-.575 1.217 0 2.208.372 2.975 1.117.772.744 1.203 1.756 1.292 3.033l.017.617c0 1.383-.386 2.494-1.158 3.333-.772.833-1.808 1.25-3.108 1.25s-2.339-.417-3.117-1.25c-.772-.833-1.158-1.967-1.158-3.4v-.108zm2.408.175c0 .856.161 1.511.483 1.967.322.45.783.675 1.383.675.583 0 1.039-.222 1.367-.667.328-.45.492-1.167.492-2.15 0-.839-.164-1.489-.492-1.95s-.789-.692-1.383-.692c-.589 0-1.044.23-1.367.692-.322.456-.483 1.164-.483 2.125zm8.166 2.475c.544-.578.914-1.15 1.108-1.717s.303-1.369.325-2.408l.067-2.95h6.633v7.075h1.3v4.65h-2.408v-2.708h-5.342v2.708h-2.458v-4.65h.775zm2.842 0h2.892v-5.083h-1.875l-.017 1.083c-.05 1.656-.383 2.989-1 4zm16.532 1.941h-2.417v-7.067h-3.017v7.067H35.91v-9.017h7.842v9.017zm8.299-9.016h2.408v9.017h-2.408v-5.567l-3.017 5.567h-2.417v-9.017h2.417v5.558l3.017-5.558zm9.024 7.241c.444 0 .806-.122 1.083-.367s.422-.57.433-.975h2.258a3.11 3.11 0 01-.5 1.683 3.33 3.33 0 01-1.35 1.183 4.217 4.217 0 01-1.883.417c-1.289 0-2.306-.408-3.05-1.225-.744-.822-1.117-1.956-1.117-3.4v-.158c0-1.389.37-2.497 1.108-3.325s1.753-1.242 3.042-1.242c1.128 0 2.031.322 2.708.967.683.639 1.031 1.492 1.042 2.558h-2.258c-.011-.467-.156-.844-.433-1.133-.278-.294-.644-.442-1.1-.442-.561 0-.986.206-1.275.617-.283.406-.425 1.067-.425 1.983v.25c0 .928.142 1.594.425 2s.714.608 1.292.608zm11.399 1.775a2.68 2.68 0 01-.242-.808c-.583.65-1.342.975-2.275.975-.883 0-1.617-.255-2.2-.767-.578-.511-.867-1.156-.867-1.933 0-.956.353-1.689 1.058-2.2.711-.511 1.736-.77 3.075-.775h1.108v-.517c0-.417-.108-.75-.325-1-.211-.25-.547-.375-1.008-.375-.406 0-.725.097-.958.292-.228.194-.342.461-.342.8H67.09c0-.522.161-1.006.483-1.45s.778-.792 1.367-1.042c.589-.256 1.25-.383 1.983-.383 1.111 0 1.992.281 2.642.842.656.556.983 1.339.983 2.35v3.908c.006.856.125 1.503.358 1.942v.142h-2.433zm-1.992-1.675c.356 0 .683-.078.983-.233.3-.161.522-.375.667-.642v-1.55h-.9c-1.206 0-1.847.417-1.925 1.25l-.008.142c0 .3.106.547.317.742s.5.292.867.292zm14.291-5.408h-2.892v7.083h-2.417V14.25h-2.842v-1.933h8.15v1.933zm4.816.708h1.725c.778 0 1.461.131 2.05.392s1.039.636 1.35 1.125c.317.483.475 1.047.475 1.692 0 .95-.353 1.717-1.058 2.3-.7.578-1.656.867-2.867.867h-4.092v-9.017h2.417v2.642zm0 1.934v2.517h1.708c.478 0 .844-.111 1.1-.333s.383-.525.383-.908c0-.389-.125-.697-.375-.925-.25-.233-.619-.35-1.108-.35h-1.708zm11.732 2.666c.444 0 .806-.122 1.083-.367s.422-.57.433-.975h2.258a3.11 3.11 0 01-.5 1.683 3.33 3.33 0 01-1.35 1.183 4.217 4.217 0 01-1.883.417c-1.289 0-2.306-.408-3.05-1.225-.744-.822-1.117-1.956-1.117-3.4v-.158c0-1.389.37-2.497 1.108-3.325s1.753-1.242 3.042-1.242c1.128 0 2.031.322 2.708.967.683.639 1.031 1.492 1.042 2.558h-2.258c-.011-.467-.156-.844-.433-1.133-.278-.294-.644-.442-1.1-.442-.561 0-.986.206-1.275.617-.283.406-.425 1.067-.425 1.983v.25c0 .928.142 1.594.425 2s.714.608 1.292.608zm13.69-7.241v9.017h-2.4v-3.117h-1.524l-1.733 3.117h-2.442l1.966-3.525c-.539-.25-.955-.589-1.249-1.017a2.545 2.545 0 01-.434-1.458c0-.872.336-1.586 1.009-2.142.677-.561 1.583-.853 2.717-.875h4.091zm-4.049 4.216h1.649V14.25h-1.566c-.428 0-.775.114-1.042.342-.267.222-.4.494-.4.817s.128.589.384.8c.255.211.58.319.975.325zM152.533 3.2l-25.6 14.4 8.181 3.03L147.733 8.8l-9.598 12.949.007.003-.01-.003V28.8l4.588-5.353 5.812 2.153 4-22.4z" />
    </symbol>
    <symbol id="icon-c1" viewBox="0 0 28 32">
      <path fill=""
        d="M4.085 0l4.771 4.517L0 4.512v21.915h23.149v-8.379l4.766 4.512V.001H4.085zm18.854 17.517L9.411 4.71h13.528v12.807zm-4.2 5.704H3.663V8.482h1.066v13.741h14.01v.998zM7.223 29.344l-.557 1.147-.557-1.147h-.467l.813 1.529v.891h.422v-.891l.811-1.529h-.465zm.7 2.42l.196-.563h.938l.198.563h.439l-.916-2.42h-.377l-.914 2.42h.437zm.665-1.906l.351 1.004h-.701l.351-1.004zm2.217.946a.55.55 0 00-.091.307c0 .204.072.37.214.497.144.126.336.189.575.189s.445-.065.618-.194l.136.161h.469l-.356-.421c.14-.191.209-.435.209-.733h-.351a.973.973 0 01-.101.444l-.467-.552.165-.12a.905.905 0 00.251-.253.532.532 0 00.076-.279.496.496 0 00-.17-.384.61.61 0 00-.432-.156.641.641 0 00-.465.166.591.591 0 00-.173.449c0 .078.018.158.055.241.038.083.104.184.198.303-.18.129-.3.24-.361.334zm1.092.535a.616.616 0 01-.382.136c-.121 0-.217-.035-.289-.105s-.108-.161-.108-.273c0-.13.067-.245.2-.346l.052-.037.529.623zm-.434-1.072c-.114-.141-.171-.258-.171-.351 0-.081.023-.148.07-.201s.109-.08.188-.08c.073 0 .133.023.181.068a.21.21 0 01.072.161.298.298 0 01-.103.234l-.052.042-.184.126zm3.94 1.314c.166-.145.262-.347.286-.605h-.419c-.022.173-.075.296-.158.371s-.207.111-.372.111a.468.468 0 01-.412-.206c-.093-.137-.14-.337-.14-.598v-.214c.002-.258.052-.454.15-.587a.493.493 0 01.422-.201c.157 0 .277.039.357.116.082.076.133.202.153.376h.419c-.027-.265-.121-.47-.284-.615s-.378-.218-.645-.218a.978.978 0 00-.525.141c-.151.094-.267.228-.347.402s-.121.375-.121.603v.226c.003.223.045.418.125.587s.193.299.339.391a.949.949 0 00.51.136c.276 0 .497-.072.663-.216zm2.472-.339c.082-.18.123-.388.123-.625v-.135a1.462 1.462 0 00-.126-.62.924.924 0 00-.878-.552.957.957 0 00-.525.145.939.939 0 00-.354.414 1.484 1.484 0 00-.125.625v.136c.001.232.043.436.126.613a.962.962 0 00.356.411.98.98 0 00.525.143.97.97 0 00.525-.143.932.932 0 00.352-.412zm-.451-1.368c.102.143.153.349.153.617v.126c0 .273-.05.48-.151.622a.493.493 0 01-.429.213.503.503 0 01-.432-.218c-.103-.145-.155-.351-.155-.617v-.14c.002-.26.054-.462.156-.603a.496.496 0 01.427-.214c.186 0 .33.072.43.214z" />
    </symbol>
    <symbol id="icon-c2" viewBox="0 0 25 32">
      <path fill=""
        d="M10.531 1.806h-.084a9.985 9.985 0 00-.388-.014h-.28c-.244 0-.494.006-.741.019a.523.523 0 00-.056 0 17.4 17.4 0 00-6.471 1.651l-.266.128v13.625l.623-.211a23.32 23.32 0 011.731-.513 21.155 21.155 0 014.982-.662v1.79a15.56 15.56 0 00-.655.019h-.051a19.96 19.96 0 00-3.833.588c-1.59.398-3.124.996-4.566 1.779V2.53A18.3 18.3 0 015.266.582 18.343 18.343 0 019.781 0h.263c.314.008.621.022.909.044.759.053 1.511.173 2.25.358v1.762a13.965 13.965 0 00-2.179-.329l-.045-.004c-.152-.013-.304-.026-.446-.026zm3.101 1.801c.391.03.795.044 1.205.044a19.352 19.352 0 004.747-.609c1.589-.4 3.123-.998 4.564-1.781v17.163a18.313 18.313 0 01-4.792 1.948 18.486 18.486 0 01-4.515.581 13.778 13.778 0 01-3.425-.404V3.274c.265.061.537.117.814.164.455.077.934.133 1.401.167zm8.735.133l-.623.21c-.573.192-1.15.365-1.731.518a21.098 21.098 0 01-5.173.663c-.406 0-.78-.011-1.141-.034l-.497-.033v14.017l.427.038c.395.034.803.052 1.214.052a16.573 16.573 0 004.074-.527 17.107 17.107 0 003.184-1.144l.266-.128V3.742zM1.684 25.977a.912.912 0 00-.693-.28 1.034 1.034 0 00-.4.075.91.91 0 00-.512.518 1.023 1.023 0 00-.072.387v2.335c-.006.165.026.328.092.479.055.12.135.226.233.313a.815.815 0 00.321.166c.114.032.231.048.349.049a.972.972 0 00.892-.61.951.951 0 00.075-.372v-.261h-.61v.208a.528.528 0 01-.036.208.359.359 0 01-.089.131.365.365 0 01-.128.067.425.425 0 01-.128.022.314.314 0 01-.286-.125.548.548 0 01-.081-.313v-2.177a.738.738 0 01.075-.349.31.31 0 01.299-.141.33.33 0 01.272.131c.068.09.104.2.101.313v.202h.604v-.238a1.093 1.093 0 00-.279-.737zM5.31 25.95a1.051 1.051 0 00-1.38 0 .961.961 0 00-.237.327 1.099 1.099 0 00-.089.452v2.239a1.08 1.08 0 00.089.459c.055.12.136.227.237.313a.94.94 0 00.322.197 1.028 1.028 0 00.728 0c.121-.044.233-.111.33-.197a.948.948 0 00.23-.313 1.08 1.08 0 00.089-.459v-2.239a1.08 1.08 0 00-.089-.452 1.015 1.015 0 00-.23-.327zm-.285 3.019a.405.405 0 01-.121.324.445.445 0 01-.574 0 .397.397 0 01-.121-.324V26.73a.405.405 0 01.121-.324.445.445 0 01.574 0 .397.397 0 01.121.324v2.239zM10.072 29.969V25.73h-.587l-.771 2.244h-.011l-.777-2.244h-.581v4.239h.606V27.39h.011l.593 1.823h.302l.598-1.823h.011v2.579h.606zM13.513 26.027a.84.84 0 00-.343-.232 1.363 1.363 0 00-.439-.066h-.9v4.239h.604v-1.656h.311c.188.009.376-.031.545-.116a.882.882 0 00.332-.324 1.02 1.02 0 00.139-.369c.024-.16.035-.321.033-.482a2.421 2.421 0 00-.059-.606.898.898 0 00-.223-.39zm-.312 1.292a.547.547 0 01-.056.221.346.346 0 01-.156.149.619.619 0 01-.285.053h-.276v-1.441h.311a.578.578 0 01.272.053.349.349 0 01.142.157.62.62 0 01.053.236v.282c0 .099.006.2 0 .291H13.2zM16.374 25.73h-.495l-.934 4.239h.604l.177-.911h.823l.177.911h.604l-.957-4.239zm-.557 2.751l.297-1.537h.011l.296 1.537h-.604zM20.277 28.284h-.011l-.912-2.554h-.581v4.239h.604V27.42h.012l.923 2.549h.568V25.73h-.604v2.554zM23.968 25.73l-.486 1.685h-.012l-.486-1.685h-.64l.83 2.447v1.792h.604v-1.792l.83-2.447h-.64zM0 31.166h.291v.817h.198v-.817h.29v-.167H.001v.167zM2.447 30.998l-.381.984h.21l.081-.224h.392l.084.224h.215l-.391-.984h-.21zm-.031.595l.134-.365.134.365h-.268zM4.866 31.62h.227v.127a.382.382 0 01-.234.083.244.244 0 01-.209-.093.411.411 0 01-.073-.257c0-.219.095-.329.283-.329a.206.206 0 01.222.157l.195-.038c-.042-.192-.181-.289-.417-.289a.495.495 0 00-.344.127.494.494 0 00-.141.379.532.532 0 00.126.369.477.477 0 00.374.144.59.59 0 00.417-.157v-.388h-.427v.166zM7.337 30.998h-.199v.984h.69v-.167h-.49v-.817zM9.426 30.998h-.199v.984h.199v-.984zM11.469 31.656l-.403-.657h-.193v.984h.185v-.643l.395.643h.198v-.984h-.182v.657zM13.315 31.549h.49v-.167h-.49v-.216h.528v-.167h-.727v.984h.747v-.167h-.548v-.266zM17.792 31.387h-.388v-.388h-.198v.984h.198v-.43h.388v.43h.198v-.984h-.198v.388zM19.649 31.549h.492v-.167h-.492v-.216h.529v-.167h-.727v.984h.746v-.167h-.548v-.266zM22.168 31.549c.171-.027.258-.117.258-.274a.236.236 0 00-.096-.219.553.553 0 00-.288-.058h-.417v.984h.198v-.412h.039a.261.261 0 01.123.022.21.21 0 01.07.072l.215.313h.237l-.12-.192a.685.685 0 00-.218-.236zm-.199-.136h-.146v-.247h.156a.526.526 0 01.201.023c.014.013.026.029.033.046a.133.133 0 01-.005.111.128.128 0 01-.037.043.547.547 0 01-.201.023zM24.067 31.549h.49v-.167h-.49v-.216h.529v-.167h-.729v.984h.747v-.167h-.548v-.266z" />
    </symbol>
    <symbol id="icon-c3" viewBox="0 0 34 32">
      <path fill=""
        d="M5.643 31.315a.095.095 0 01.064.025l.166.159a1.373 1.373 0 01-.467.302c-.21.076-.435.113-.663.108a1.767 1.767 0 01-.623-.101 1.37 1.37 0 01-.469-.285 1.277 1.277 0 01-.303-.44 1.472 1.472 0 01-.106-.565 1.31 1.31 0 01.436-1.007c.142-.124.312-.222.499-.287.205-.069.422-.103.642-.101.204-.004.407.027.596.092.165.062.316.148.447.255l-.139.17a.173.173 0 01-.035.031.097.097 0 01-.056.013.136.136 0 01-.06-.018l-.075-.045-.104-.058a1.3 1.3 0 00-.139-.056 1.46 1.46 0 00-.436-.063 1.328 1.328 0 00-.461.076c-.136.048-.26.121-.361.213a.987.987 0 00-.235.339 1.155 1.155 0 00-.085.448 1.17 1.17 0 00.085.455.994.994 0 00.231.338.938.938 0 00.345.209c.136.049.281.073.428.072.085.001.17-.004.253-.014a1.01 1.01 0 00.548-.233.127.127 0 01.079-.029zM10.441 30.517c.003.192-.035.382-.112.561-.068.163-.174.311-.313.436s-.306.222-.491.286a2.02 2.02 0 01-1.263 0 1.454 1.454 0 01-.488-.287 1.288 1.288 0 01-.316-.44 1.462 1.462 0 010-1.125c.071-.164.178-.314.316-.442.139-.12.305-.214.488-.276a1.992 1.992 0 011.263 0c.185.065.351.163.49.287.137.125.243.273.314.435.077.181.115.372.112.565zm-.436 0a1.186 1.186 0 00-.079-.451.941.941 0 00-.222-.338.971.971 0 00-.351-.213 1.456 1.456 0 00-.918 0 .971.971 0 00-.351.213.897.897 0 00-.224.338 1.322 1.322 0 000 .903.926.926 0 00.575.549 1.5 1.5 0 00.918 0 .98.98 0 00.351-.211.933.933 0 00.222-.338c.056-.145.082-.298.079-.451zM13.715 30.99l.044.101c.017-.036.031-.069.048-.101a.95.95 0 01.054-.099l1.062-1.677c.021-.029.039-.047.06-.052a.283.283 0 01.087-.009h.314v2.727h-.372v-2.005-.085a.737.737 0 010-.094l-1.068 1.7c-.014.025-.035.047-.062.062s-.059.023-.091.023h-.06c-.032 0-.064-.007-.091-.022s-.049-.037-.062-.062l-1.099-1.711v2.189h-.359v-2.722h.314a.283.283 0 01.087.009c.026.011.046.03.058.052l1.084 1.678a.662.662 0 01.054.097zM17.71 30.855v1.021h-.415v-2.723h.926c.175-.003.349.017.517.059.134.033.259.091.366.17a.713.713 0 01.208.267.825.825 0 01.071.348.771.771 0 01-.301.621 1.062 1.062 0 01-.368.18 1.757 1.757 0 01-.501.063l-.503-.007zm0-.293h.503a1.2 1.2 0 00.322-.041.71.71 0 00.233-.117.526.526 0 00.191-.409c.005-.076-.009-.151-.042-.222s-.082-.134-.145-.186a.889.889 0 00-.559-.146h-.503v1.122zM23.294 31.88h-.328a.158.158 0 01-.091-.025.17.17 0 01-.054-.063l-.282-.659H21.12l-.293.659a.152.152 0 01-.145.088h-.328l1.246-2.727h.432l1.263 2.727zm-2.057-1.013h1.172l-.494-1.11a1.746 1.746 0 01-.093-.256l-.048.143a1.404 1.404 0 01-.046.116l-.49 1.108zM25.089 29.165a.178.178 0 01.062.049l1.818 2.056v-.096-2.021h.372v2.727h-.208a.204.204 0 01-.085-.016.221.221 0 01-.066-.05l-1.816-2.054a.737.737 0 010 .094v2.027h-.372v-2.727h.22a.191.191 0 01.075.013zM30.402 30.795v1.083h-.415v-1.083l-1.149-1.642h.372a.15.15 0 01.089.023.23.23 0 01.056.061l.719 1.059a1.064 1.064 0 01.127.242l.054-.117a.975.975 0 01.071-.125l.708-1.067a.295.295 0 01.054-.058.14.14 0 01.089-.027h.376l-1.151 1.65zM13.51 24.576c.181.02.364.036.548.051 2.803-1.089 5.174-2.873 6.817-5.126s2.485-4.878 2.421-7.546l-3.089-2.684c.628 2.84.334 5.776-.848 8.479s-3.208 5.067-5.849 6.827z" />
      <path fill=""
        d="M12.407 24.451l.083.014c2.822-1.754 4.974-4.203 6.176-7.03s1.402-5.904.571-8.83l-4.4-3.823c1.78 3.142 2.496 6.659 2.066 10.141s-1.989 6.786-4.496 9.528zM27.328 15.106c-.747 2.931-2.563 5.574-5.177 7.537a16.532 16.532 0 01-2.459 1.534c2.128-.544 4.085-1.504 5.718-2.809s2.9-2.917 3.703-4.714l-1.784-1.549z" />
      <path fill=""
        d="M26.628 14.674l-2.541-2.207c-.049 2.517-.872 4.976-2.385 7.123s-3.66 3.902-6.217 5.084h.012c.57 0 1.139-.03 1.705-.088 2.39-.848 4.502-2.196 6.147-3.926s2.771-3.785 3.278-5.985zM12.774 3.17L9.743.533c-2.709.91-5.04 2.509-6.686 4.588S.526 9.663.517 12.187c.01 2.789 1.09 5.495 3.07 7.69s4.745 3.754 7.859 4.43c2.78-2.942 4.407-6.579 4.646-10.38s-.924-7.569-3.319-10.757zM33.631 14.268c-.011-3.309-1.529-6.479-4.221-8.818s-6.342-3.658-10.15-3.668a16.144 16.144 0 00-5.146.832l18.557 16.123a10.94 10.94 0 00.96-4.469z" />
    </symbol>
    <symbol id="icon-c4" viewBox="0 0 65 32">
      <path fill=""
        d="M10.016 9.983h-.002c-1.827 0-3.308 1.316-3.308 2.94v.002c0 1.624 1.481 2.94 3.308 2.94h.002c1.827 0 3.308-1.316 3.308-2.94v-.002c0-1.624-1.481-2.94-3.308-2.94zM34.434 9.043c-.005-2.255-1.015-4.417-2.81-6.012S27.398.538 24.86.533c-2.538.004-4.972.902-6.767 2.497s-2.806 3.757-2.811 6.013v12.436s19.149-1.895 19.151-12.434v-.002zM0 25.562c.005 1.569.708 3.073 1.956 4.183s2.94 1.735 4.706 1.74c1.765-.005 3.457-.63 4.705-1.739s1.952-2.613 1.957-4.182V16.91S-.001 18.23-.001 25.562zm6.662 1.55c-.345 0-.682-.091-.969-.261s-.511-.413-.643-.696-.167-.595-.099-.896.233-.577.477-.794.555-.364.893-.424c.338-.06.689-.029 1.008.088s.591.316.783.571a1.404 1.404 0 01.163 1.456c-.087.189-.216.36-.378.505-.162.145-.355.259-.567.338s-.439.119-.669.119v-.006zM20.128 26.258h-1.286v1.328h-.67v-3.25h2.116v.542h-1.446v.839h1.286v.54zm3.218-.223c0 .32-.057.6-.17.842s-.275.427-.487.558c-.21.131-.451.196-.723.196a1.289 1.289 0 01-1.212-.748 1.907 1.907 0 01-.176-.83v-.161c0-.32.057-.601.172-.844a1.285 1.285 0 011.212-.756c.271 0 .511.065.721.196.211.129.374.316.489.56.116.242.174.523.174.841v.145zm-.678-.147c0-.341-.061-.6-.183-.777s-.296-.266-.522-.266a.596.596 0 00-.52.263c-.122.174-.184.43-.185.768v.158c0 .332.061.589.183.772s.298.275.527.275a.592.592 0 00.518-.263c.121-.177.182-.434.183-.772v-.158zm2.85.846a.342.342 0 00-.134-.29c-.089-.068-.25-.14-.482-.214a3.465 3.465 0 01-.551-.223c-.369-.199-.554-.468-.554-.806 0-.176.049-.332.147-.469a.985.985 0 01.426-.324c.186-.077.394-.116.625-.116.232 0 .439.042.62.127a.973.973 0 01.422.355.926.926 0 01.152.522h-.67a.434.434 0 00-.141-.346c-.094-.083-.225-.125-.395-.125-.164 0-.291.035-.382.105a.323.323 0 00-.136.272c0 .106.053.194.158.266.107.071.264.138.471.201.381.115.659.257.833.426s.261.381.261.634a.785.785 0 01-.319.663c-.213.159-.499.239-.859.239-.25 0-.478-.045-.683-.136a1.1 1.1 0 01-.471-.377.97.97 0 01-.161-.554h.672c0 .359.214.538.643.538a.631.631 0 00.373-.096.318.318 0 00.134-.272zm3.574-1.855h-.995v2.708h-.67v-2.708h-.982v-.542h2.647v.542zm2.339 1.299h-1.286v.871h1.509v.538h-2.178v-3.25h2.174v.542h-1.504v.775h1.286v.525zm1.82.218h-.533v1.19h-.67v-3.25h1.208c.384 0 .68.086.888.257s.313.413.313.725a.998.998 0 01-.145.556.979.979 0 01-.435.353l.703 1.328v.031h-.719l-.609-1.19zm-.534-.542h.54c.168 0 .298-.042.391-.127a.463.463 0 00.138-.355.49.49 0 00-.132-.362c-.086-.088-.219-.132-.4-.132h-.538v.975zm4.058.587v1.145h-.67v-3.25h1.268c.244 0 .458.045.643.134a.98.98 0 01.429.382c.1.164.15.35.15.56 0 .318-.109.57-.328.754-.217.183-.519.275-.904.275h-.587zm0-.542h.598c.177 0 .312-.042.404-.125.094-.083.141-.202.141-.357 0-.159-.047-.288-.141-.386s-.223-.149-.388-.152h-.614v1.02zm4.237.279h-1.286v.871h1.509v.538h-2.178v-3.25h2.174v.542h-1.504v.775h1.286v.525zm3.107-1.299h-.995v2.708h-.67v-2.708h-.982v-.542h2.647v.542zm2.339 1.299h-1.286v.871h1.509v.538h-2.179v-3.25h2.174v.542h-1.504v.775h1.286v.525zm1.819.218h-.533v1.19h-.67v-3.25h1.208c.384 0 .68.086.888.257s.312.413.312.725a.998.998 0 01-.145.556.979.979 0 01-.435.353l.703 1.328v.031h-.719l-.609-1.19zm-.533-.542h.54c.168 0 .298-.042.391-.127a.463.463 0 00.138-.355.49.49 0 00-.132-.362c-.086-.088-.219-.132-.4-.132h-.538v.975zm3.935.88a.342.342 0 00-.134-.29c-.089-.068-.25-.14-.482-.214a3.465 3.465 0 01-.551-.223c-.369-.199-.554-.468-.554-.806 0-.176.049-.332.147-.469a.985.985 0 01.426-.324c.186-.077.394-.116.625-.116.232 0 .439.042.621.127a.978.978 0 01.422.355.926.926 0 01.152.522h-.67a.434.434 0 00-.141-.346c-.094-.083-.225-.125-.395-.125-.164 0-.291.035-.382.105a.323.323 0 00-.136.272c0 .106.053.194.158.266.107.071.264.138.471.201.381.115.658.257.833.426s.261.381.261.634a.785.785 0 01-.319.663c-.213.159-.499.239-.859.239-.25 0-.478-.045-.683-.136a1.1 1.1 0 01-.471-.377.97.97 0 01-.161-.554h.672c0 .359.214.538.643.538a.634.634 0 00.373-.096.318.318 0 00.134-.272z" />
    </symbol>
    <symbol id="icon-c5" viewBox="0 0 43 32">
      <path fill=""
        d="M3.239 26.373a.98.98 0 01.25.665c.008.158-.022.315-.089.46s-.169.275-.298.38a1.788 1.788 0 01-1.125.307H0V23.97h1.937c.382-.023.761.076 1.073.28.125.096.224.217.289.354s.095.286.086.435a.923.923 0 01-.225.645 1.06 1.06 0 01-.589.329c.262.044.499.172.668.36zM.92 25.737h.828a.835.835 0 00.526-.14c.062-.052.111-.116.141-.187s.043-.148.036-.225c.006-.076-.007-.153-.037-.224s-.078-.135-.138-.188a.858.858 0 00-.542-.142H.92v1.106zm1.435 1.616c.066-.053.119-.119.153-.193s.049-.155.043-.235c.005-.081-.01-.163-.045-.238s-.088-.142-.155-.195a.907.907 0 00-.562-.152H.921v1.159H1.8a.93.93 0 00.556-.146zM7.197 28.185L6.12 26.538h-.405v1.647h-.927V23.97h1.754c.442-.028.879.1 1.221.358.245.229.393.53.417.85s-.078.637-.287.894a1.46 1.46 0 01-.837.428l1.147 1.684H7.195zm-1.482-2.222h.758c.526 0 .789-.213.789-.638a.586.586 0 00-.193-.473.87.87 0 00-.596-.171h-.767l.009 1.283zM12.262 27.337h-1.847l-.326.848h-.972l1.696-4.168h1.05l1.689 4.168h-.972l-.319-.848zm-.247-.639l-.675-1.779-.675 1.779h1.349zM18.603 28.185h-.92l-2.063-2.867v2.867h-.918V23.97h.918l2.063 2.883V23.97h.92v4.215zM23.852 27.176c-.19.318-.48.577-.832.743-.4.185-.845.276-1.293.266H20.09V23.97h1.637c.448-.011.891.078 1.293.259.352.163.642.419.832.735.189.343.288.722.288 1.106s-.099.763-.288 1.106zm-1.053-.101c.263-.28.407-.637.407-1.006s-.144-.726-.407-1.006a1.692 1.692 0 00-1.152-.358h-.639v2.729h.639a1.7 1.7 0 001.152-.358zM12.838.522s11.873 4.104 11.621 10.043V20.61s-11.864-4.106-11.617-10.045L12.837.522zM35.037 18.259c2.242-1.413 4.836-2.288 7.544-2.545v-3.145c-3.12 1.101-5.766 3.097-7.544 5.69z" />
      <path fill=""
        d="M33.69 19.206c1.835-3.384 5.017-5.995 8.891-7.296V2.849S25.672 8.695 26.03 17.153v14.302s.753-.262 1.939-.752c0-.457 0-.918.054-1.382.35-3.926 2.389-7.565 5.668-10.115z" />
      <path fill=""
        d="M32.081 24.52a13.62 13.62 0 01.592-2.928c-2.042 2.203-3.278 4.936-3.536 7.815-.025.272-.038.544-.045.824a50.77 50.77 0 003.252-1.569 13.564 13.564 0 01-.263-4.141zM32.754 24.571a12.973 12.973 0 00.209 3.75c4.62-2.531 9.811-6.442 9.611-11.168v-.412c-3.301.338-6.389 1.659-8.79 3.76a13.125 13.125 0 00-1.03 4.069z" />
    </symbol>
    <symbol id="icon-c6" viewBox="0 0 67 32">
      <path fill=""
        d="M33.724 15.224a2.095 2.095 0 01-.43-1.414v-2.05c0-.628.142-1.106.428-1.433s.775-.489 1.469-.488c.652 0 1.115.139 1.389.417.299.355.444.789.411 1.226v.482h-1.167v-.488a2.476 2.476 0 00-.034-.478.467.467 0 00-.167-.284.681.681 0 00-.423-.111.711.711 0 00-.444.117.544.544 0 00-.193.313 2.398 2.398 0 00-.046.507v2.488c-.018.24.033.48.15.699.058.074.139.132.233.169s.198.05.301.039a.632.632 0 00.413-.113.505.505 0 00.174-.302c.027-.165.039-.332.036-.498v-.505h1.167v.461c.033.456-.109.909-.403 1.289-.268.305-.725.457-1.396.457s-1.179-.163-1.466-.501zM38.583 15.245c-.295-.319-.442-.784-.442-1.4v-2.157c0-.609.147-1.07.442-1.383s.788-.469 1.478-.467c.686 0 1.176.156 1.471.467.295.313.444.774.444 1.383v2.157c0 .609-.15 1.076-.449 1.397s-.788.482-1.466.482-1.181-.163-1.478-.48zm2.022-.518c.106-.2.154-.419.14-.638v-2.641a1.17 1.17 0 00-.138-.626c-.059-.075-.142-.135-.238-.172s-.203-.05-.308-.037c-.105-.013-.212 0-.308.037s-.18.096-.24.172a1.15 1.15 0 00-.14.626v2.653c-.015.219.033.439.14.638.068.067.152.121.246.158a.82.82 0 00.6 0 .732.732 0 00.246-.158v-.012zM43.38 9.901h1.256l.945 3.979.966-3.979h1.222l.123 5.743h-.904l-.097-3.992-.932 3.992h-.725l-.966-4.006-.089 4.006h-.913l.114-5.743zM49.302 9.901h1.957c1.127 0 1.691.544 1.691 1.631 0 1.041-.593 1.561-1.78 1.56h-.667v2.553h-1.208l.007-5.743zm1.671 2.455c.119.013.241.004.355-.028s.22-.084.309-.154a.928.928 0 00.174-.649 1.801 1.801 0 00-.058-.521c-.017-.057-.047-.111-.089-.158s-.093-.086-.153-.116a1.262 1.262 0 00-.539-.092h-.469v1.716h.469zM54.691 9.901h1.297l1.331 5.743h-1.126l-.263-1.324h-1.157l-.27 1.324H53.36l1.331-5.743zm1.109 3.754l-.452-2.411-.452 2.411h.903zM58.395 9.901h.846l1.619 3.276V9.901h1.003v5.743h-.804l-1.628-3.42v3.42h-1.036l.002-5.743zM64.209 13.455l-1.346-3.546h1.133l.821 2.277.771-2.277h1.109l-1.329 3.546v2.19h-1.16v-2.19zM35.589 18.156v.3h-.986v2.334h-.413v-2.334h-.99v-.3h2.389zM38.679 20.79h-.319a.139.139 0 01-.089-.025.133.133 0 01-.053-.06l-.285-.626h-1.367l-.285.626a.172.172 0 01-.044.071.152.152 0 01-.089.025h-.319l1.208-2.634h.42l1.222 2.624zm-2-.978h1.14l-.483-1.072a1.75 1.75 0 01-.089-.248c-.017.05-.031.098-.046.14l-.044.11-.478 1.07zM40.762 20.532c.076.003.151.003.227 0a1.72 1.72 0 00.367-.079c.053-.019.106-.042.162-.065v-.592h-.483c-.012.001-.024-.001-.035-.005s-.021-.009-.03-.016a.062.062 0 01-.024-.048v-.202h.937v1.01a1.842 1.842 0 01-.51.215c-.099.025-.2.043-.302.054a3.775 3.775 0 01-.353.017 1.842 1.842 0 01-.609-.098 1.485 1.485 0 01-.483-.275 1.28 1.28 0 01-.312-.417 1.316 1.316 0 01-.111-.547 1.352 1.352 0 01.109-.551c.069-.156.176-.298.312-.417.138-.119.302-.212.483-.273.207-.067.426-.1.647-.098.112 0 .225.008.336.023.098.014.194.036.288.067a1.4 1.4 0 01.452.242l-.116.163c-.009.015-.023.027-.039.036s-.036.014-.055.014a.16.16 0 01-.075-.021 1.582 1.582 0 01-.118-.063 1.02 1.02 0 00-.162-.071 1.508 1.508 0 00-.529-.081 1.407 1.407 0 00-.466.073 1.026 1.026 0 00-.355.209.918.918 0 00-.225.328 1.23 1.23 0 000 .878.938.938 0 00.242.332c.099.09.219.162.353.209.154.046.316.063.478.052zM44.612 20.49h1.319v.3h-1.723v-2.634h.413l-.01 2.334zM47.304 20.79h-.413v-2.634h.413v2.634zM48.84 18.168a.189.189 0 01.063.048l1.766 1.986a.737.737 0 010-.094v-1.962h.36v2.645h-.208a.19.19 0 01-.089-.015.23.23 0 01-.065-.05l-1.764-1.984v2.048h-.345v-2.634h.215c.023 0 .046.004.068.012zM54.07 18.156v.29h-1.464v.87h1.186v.279h-1.186v.899h1.464v.29h-1.889v-2.628h1.889zM10.782 1.888l18.343 4.497v15.757l-18.343-4.494V1.889zM9.605.545v17.867l20.694 5.074V5.621L9.605.545z" />
      <path fill="" d="M20.696 31.781L0 26.702V8.836l20.696 5.076V31.78z" />
      <path fill=""
        d="M9.948 1.686l18.104 4.44-7.699 6.649L2.247 8.333l7.702-6.647zM9.605.545L0 8.837l20.696 5.076 9.603-8.292L9.605.545zM21.861 30.776l8.438-7.287-8.438-2.071v9.358z" />
    </symbol>
    <symbol id="icon-instagram" viewBox="0 0 32 32">
      <path fill="var(--color5, #afb1b8)"
        d="M31.969 9.408c-.075-1.7-.35-2.869-.744-3.882a7.806 7.806 0 00-1.851-2.838A7.867 7.867 0 0026.542.844C25.523.45 24.36.175 22.66.1 20.947.019 20.403 0 16.059 0s-4.888.019-6.595.094c-1.7.075-2.869.35-3.882.744a7.803 7.803 0 00-2.838 1.85A7.867 7.867 0 00.9 5.52C.506 6.539.231 7.702.156 9.402c-.081 1.713-.1 2.257-.1 6.601s.019 4.888.094 6.595c.075 1.7.35 2.869.744 3.882a7.895 7.895 0 001.85 2.838 7.867 7.867 0 002.832 1.844c1.019.394 2.182.669 3.882.744 1.706.075 2.25.094 6.595.094s4.888-.019 6.595-.094c1.7-.075 2.869-.35 3.882-.744a8.184 8.184 0 004.682-4.682c.394-1.019.669-2.182.744-3.882.075-1.707.094-2.251.094-6.595s-.006-4.888-.081-6.595zm-2.882 13.065c-.069 1.563-.331 2.407-.55 2.969a5.31 5.31 0 01-3.038 3.038c-.563.219-1.413.481-2.969.55-1.688.075-2.194.094-6.464.094s-4.782-.019-6.464-.094c-1.563-.069-2.407-.331-2.969-.55a4.926 4.926 0 01-1.838-1.194 4.974 4.974 0 01-1.194-1.838c-.219-.563-.481-1.413-.55-2.969-.075-1.688-.094-2.194-.094-6.464s.019-4.782.094-6.464c.069-1.563.331-2.407.55-2.969a4.868 4.868 0 011.2-1.838A4.974 4.974 0 016.639 3.55c.563-.219 1.413-.481 2.969-.55 1.688-.075 2.194-.094 6.464-.094 4.276 0 4.782.019 6.464.094 1.563.069 2.407.331 2.969.55a4.914 4.914 0 011.838 1.194 4.974 4.974 0 011.194 1.838c.219.563.481 1.413.55 2.969.075 1.688.094 2.194.094 6.464s-.019 4.77-.094 6.458z" />
      <path fill="var(--color5, #afb1b8)"
        d="M16.059 7.783c-4.538 0-8.22 3.682-8.22 8.22s3.682 8.22 8.22 8.22c4.539 0 8.22-3.682 8.22-8.22s-3.682-8.22-8.22-8.22zm0 13.552a5.333 5.333 0 010-10.664 5.333 5.333 0 010 10.664zM26.524 7.458a1.919 1.919 0 11-3.838 0 1.919 1.919 0 013.838 0z" />
    </symbol>
    <symbol id="icon-linkedin" viewBox="0 0 32 32">
      <path fill="var(--color5, #afb1b8)"
        d="M31.992 32v-.001H32V20.263c0-5.741-1.236-10.164-7.948-10.164-3.227 0-5.392 1.771-6.276 3.449h-.093v-2.913h-6.364v21.364h6.627V21.42c0-2.785.528-5.479 3.977-5.479 3.399 0 3.449 3.179 3.449 5.657v10.401h6.62zM.528 10.636h6.635V32H.528V10.636zM3.843 0C1.722 0 0 1.721 0 3.843s1.721 3.879 3.843 3.879c2.121 0 3.843-1.757 3.843-3.879A3.846 3.846 0 003.843 0z" />
    </symbol>
    <symbol id="icon-pc" viewBox="0 0 72 32">
      <path fill="var(--color1, #f5f4fa)"
        d="M1.067 0h69.867c.589 0 1.067.478 1.067 1.067v29.867c0 .589-.478 1.067-1.067 1.067H1.067A1.067 1.067 0 010 30.934V1.067C0 .478.478 0 1.067 0z" />
      <path fill="var(--color2, #2196f3)"
        d="M35.373 15.396h.622v2.799h-.622v-2.799zM37.861 16.64h.622v1.555h-.622V16.64zM32.886 17.573h.622v.622h-.622v-.622zM31.02 17.262h.622v.933h-.622v-.933z" />
      <path fill="var(--color3, #212121)"
        d="M27.599 23.17h14.926a.933.933 0 00.933-.933v-1.244a.933.933 0 00-.933-.933h-.311v-7.754l1.766-1.673a.938.938 0 10-.437-.445l-1.331 1.262v-.717a.933.933 0 00-.933-.933H28.841a.933.933 0 00-.933.933v9.328h-.311a.933.933 0 00-.933.933v1.244c0 .515.418.933.933.933zM44.391 9.488a.31.31 0 110 .621.31.31 0 010-.621zm-15.859 1.244a.31.31 0 01.311-.311h12.438a.31.31 0 01.311.311v1.306l-.622.591v-1.275a.31.31 0 00-.311-.311H29.465a.31.31 0 00-.311.311v7.774a.31.31 0 00.311.311h11.194a.311.311 0 00.311-.311v-5.643l.622-.589v7.165h-13.06v-9.328zm2.799 4.042a.933.933 0 10.646 1.603l1.081.542a.31.31 0 00.371-.072l2.298-2.585 2.259 1.692a.31.31 0 00.4-.023l1.963-1.859v4.743H29.777v-7.152h10.572v1.552l-2.2 2.083-2.278-1.707a.311.311 0 00-.419.042l-2.329 2.621-.871-.435c.006-.037.01-.075.012-.113a.933.933 0 00-.933-.933zm.311.933a.31.31 0 11-.621 0 .31.31 0 01.621 0zm1.865 4.975h3.11v.311a.31.31 0 01-.311.311h-2.488a.31.31 0 01-.311-.311v-.311zm-6.218.311a.31.31 0 01.311-.311h5.286v.311c0 .515.418.933.933.933h2.488a.933.933 0 00.933-.933v-.311h5.286a.31.31 0 01.311.311v1.244a.31.31 0 01-.311.311H27.6a.31.31 0 01-.311-.311v-1.244z" />
    </symbol>
    <symbol id="icon-person-black" viewBox="0 0 32 32">
      <path fill=""
        d="M16 16c2.947 0 5.333-2.387 5.333-5.333S18.946 5.334 16 5.334c-2.947 0-5.333 2.387-5.333 5.333S13.054 16 16 16zm0 2.667c-3.56 0-10.667 1.787-10.667 5.333v1.333c0 .733.6 1.333 1.333 1.333h18.667c.733 0 1.333-.6 1.333-1.333V24c0-3.547-7.107-5.333-10.667-5.333z" />
    </symbol>
    <symbol id="icon-phone-black" viewBox="0 0 32 32">
      <path
        d="M24.882 19.773l-3.268-.373a2.561 2.561 0 00-2.11.733L17.137 22.5a19.357 19.357 0 01-8.478-8.478l2.38-2.38a2.561 2.561 0 00.733-2.11l-.373-3.242a2.575 2.575 0 00-2.56-2.277H6.613c-1.454 0-2.663 1.209-2.573 2.663.682 10.987 9.469 19.761 20.443 20.443 1.454.09 2.663-1.119 2.663-2.573V22.32a2.55 2.55 0 00-2.264-2.547z" />
    </symbol>
    <symbol id="icon-send-footersend" viewBox="0 0 32 32">
      <path fill="" d="M32 0L0 18l10.227 3.788L26 7 14.002 23.186l.01.004-.012-.004V32l5.735-6.691L27 28l5-28z" />
    </symbol>
    <symbol id="icon-smartphone" viewBox="0 0 20 32">
      <path fill=""
        d="M17 0H3C1.346 0 0 1.346 0 3v26c0 1.654 1.346 3 3 3h14c1.654 0 3-1.346 3-3V3c0-1.654-1.346-3-3-3zM3 2h14a1 1 0 011 1v21H2V3a1 1 0 011-1zm14 28H3a1 1 0 01-1-1v-3h16v3a1 1 0 01-1 1z" />
      <path fill=""
        d="M4.707 27.478c.391.365.391.956 0 1.321s-1.024.365-1.414 0c-.391-.365-.391-.956 0-1.321s1.024-.365 1.414 0z" />
    </symbol>
    <symbol id="icon-tarelka" viewBox="0 0 72 32">
      <path fill="var(--color1, #f5f4fa)"
        d="M1.067 0h69.867c.589 0 1.067.478 1.067 1.067v29.867c0 .589-.478 1.067-1.067 1.067H1.067A1.067 1.067 0 010 30.934V1.067C0 .478.478 0 1.067 0z" />
      <path fill="var(--color3, #212121)"
        d="M44.618 19.557l-4.925-4.961.547-2.692c.141.055.291.084.442.085h.004a1.26 1.26 0 10-1.172-.837l-2.893.353-4.719-4.744a.309.309 0 00-.438-.002l-.882.877a.31.31 0 000 .44l.475.482a8.716 8.716 0 001.47 10.303.302.302 0 00.085.057c-.02.105-.03.212-.03.319v3.609h-3.733a1.558 1.558 0 00-1.556 1.556v.622a.31.31 0 00.311.311h14.311a.31.31 0 00.311-.311v-.622a1.558 1.558 0 00-1.555-1.556h-3.733v-1.599a8.785 8.785 0 001.778.187 8.673 8.673 0 004.107-1.04l.477.48a.309.309 0 00.438.002l.882-.877a.31.31 0 000-.44zm-4.371-9.254a.623.623 0 11.439 1.063h-.002a.623.623 0 01-.436-1.063h-.001zm-.733 2.044l-.349 1.718-.686-.69 1.035-1.029zm-.353-.526l-1.12 1.113-.866-.871 1.986-.242zm1.508 11.646c.515 0 .933.418.933.933v.311H27.913V24.4c0-.515.418-.933.933-.933h11.822zm-4.355-1.245v.622h-3.111v-.622h3.111zm-3.112-.622v-2.364c0-.755.698-1.369 1.555-1.369s1.556.614 1.556 1.369V21.6h-3.111zm3.734-.989v-1.375c0-1.098-.977-1.991-2.178-1.991a2.217 2.217 0 00-1.914 1.042 8.09 8.09 0 01-1.329-9.268l10.851 10.913a8.068 8.068 0 01-5.43.679zm6.585-.399L31.238 7.857l.44-.439 4.629 4.655c.002 0 .003.004.006.006l7.65 7.695-.441.439z" />
      <path fill="var(--color2, #2196f3)"
        d="M34.761 18.489h-.003a.934.934 0 00-.003 1.867h.003a.934.934 0 00.003-1.867zm.217 1.154a.31.31 0 11-.438-.441.314.314 0 01.218-.091.312.312 0 01.218.532h.003z" />
    </symbol>
    <symbol id="icon-twitter" viewBox="0 0 32 32">
      <path fill="var(--color5, #afb1b8)"
        d="M32 6.078c-1.19.522-2.458.868-3.78 1.036a6.523 6.523 0 002.886-3.626 13.11 13.11 0 01-4.16 1.588A6.574 6.574 0 0022.154 3c-3.632 0-6.556 2.948-6.556 6.562 0 .52.044 1.02.152 1.496-5.454-.266-10.28-2.88-13.522-6.862a6.605 6.605 0 00-.898 3.316 6.57 6.57 0 002.914 5.452 6.479 6.479 0 01-2.964-.808v.072c0 3.188 2.274 5.836 5.256 6.446a6.548 6.548 0 01-1.72.216 5.8 5.8 0 01-1.242-.112c.85 2.598 3.262 4.508 6.13 4.57a13.182 13.182 0 01-8.134 2.798c-.538 0-1.054-.024-1.57-.09A18.469 18.469 0 0010.064 29c12.072 0 18.672-10 18.672-18.668 0-.29-.01-.57-.024-.848A13.087 13.087 0 0032 6.078z" />
    </symbol>
  </defs>
</svg>